<?xml version="1.0" encoding="utf-8"?>
<!-- Generator: Adobe Illustrator 23.0.0, SVG Export Plug-In . SVG Version: 6.00 Build 0)  -->
<svg version="1.1" id="LOGO" xmlns="http://www.w3.org/2000/svg" xmlns:xlink="http://www.w3.org/1999/xlink" x="0px" y="0px"
	 viewBox="0 0 203.8 61.6" style="enable-background:new 0 0 203.8 61.6;" xml:space="preserve">
<style type="text/css">
	.st0{fill:#B15533;}
</style>
<g>
	<path class="st0" d="M119.4,2.3V6c-3.9,0.1-6.3,0.2-7,0.3c-0.7,0.1-1.3,0.3-1.6,0.5c-0.3,0.2-0.5,0.4-0.6,0.7
		c-0.3,0.5-0.5,1.4-0.6,2.7c-0.1,0.7-0.1,2.1-0.2,4c-0.2,6.8-0.2,10.4-0.2,10.9v16.7l0.2,7.6c0,2.8,0.2,4.7,0.6,5.5
		c0.2,0.4,0.4,0.7,0.8,0.9s1,0.4,1.8,0.5s3.1,0.2,6.9,0.3v3.6C113.1,60,106.3,60,99.1,60c-6.3,0-11.9,0.1-16.8,0.2v-3.6
		c4.1-0.1,6.4-0.2,7-0.3c0.8-0.1,1.4-0.3,1.7-0.5c0.3-0.2,0.5-0.4,0.6-0.7s0.3-1.6,0.5-3.9c0.3-3.3,0.5-6.4,0.5-9.2V24.8
		c0-5.5,0-9-0.1-10.6c-0.2-3.5-0.4-5.7-0.7-6.6c-0.1-0.4-0.3-0.6-0.6-0.8c-0.3-0.2-0.7-0.4-1.4-0.5C89,6.2,86.5,6.1,82.2,6V2.3
		c4.9,0.2,10.6,0.2,16.9,0.2C106.3,2.6,113.1,2.5,119.4,2.3z"/>
</g>
<g>
	<path d="M1.5,41.4v-0.7c2.9,0,3.3-0.6,3.3-4.1V25.4c0-3.5-0.4-4-3.3-4v-0.7h9.4v0.7c-2.9,0-3.3,0.6-3.3,4v11.3
		c0,3.5,0.4,4.1,3.3,4.1v0.7L1.5,41.4L1.5,41.4z"/>
	<path d="M26.8,36.6c0,3.5,0.5,4.1,3.3,4.1v0.7h-7.9v-0.7c2.9,0,3.3-0.6,3.3-4.1V25.4c0-3.5-0.4-4-3.3-4v-0.7h5.9l7.3,16.9l7.3-16.9
		h5.4v0.7c-2.9,0-3.3,0.6-3.3,4v11.3c0,3.5,0.4,4.1,3.3,4.1v0.7h-9.4v-0.7c2.9,0,3.3-0.6,3.3-4.1V25.3L35,42h-0.5l-7.7-17.7V36.6z"
		/>
	<path d="M62.4,38.1c-0.8,1.9-0.2,2.6,2.7,2.6v0.7H57v-0.7c2.9,0,3.1-0.6,4.2-3L68.7,20h0.5l7.7,17.6c1.1,2.4,1.2,3,4.1,3v0.7h-9.6
		v-0.7c2.9,0,3.5-0.7,2.7-2.6l-1.7-3.8H64L62.4,38.1z M68.2,24.6L64.6,33h7.2L68.2,24.6z"/>
	<path d="M104.1,33.5v-0.7h9.1v0.7c-2.9,0-3.3,0.6-3.3,4.1v2.6c-3.8,0-5.4,1.8-9,1.8c-5.9,0-10.6-5-10.6-11s4.8-11,10.6-11
		c2.4,0,4.7,1.1,6.4,2.9c0.5-0.3,1-1.1,1.2-2h0.7v7.6h-0.7c-0.9-4.5-3.6-7.2-7.5-7.2c-5.5,0-7.6,5.3-7.6,9.6s1.8,9.5,8.2,9.5
		c3,0,5.7-1.6,5.7-4.7C107.4,34.3,106.5,33.5,104.1,33.5z"/>
	<path d="M123,40.7c2.9,0,3.3-0.6,3.3-4.1V25.4c0-3.5-0.4-4-3.3-4v-0.7h15.8l0.3,4.6h-0.7l-0.2-0.7c-0.5-1.8-0.8-2.6-4-2.6H129v7.9
		h1.7c3.5,0,4-0.4,4-3.3h0.7v7.9h-0.7c0-2.9-0.6-3.3-4-3.3H129v5.1c0,3.5,0.4,4,3.3,4h3c3.2,0,3.6-0.8,4-2.6l0.2-0.7h0.7l-0.3,4.6
		h-17v-0.9H123z"/>
	<path d="M165.7,36.3c2,2.4,4.4,4.2,6.4,4.4v0.7h-5.7l-6.9-9.1H158v4.3c0,3.5,0.4,4.1,3.3,4.1v0.7h-9.4v-0.7c2.9,0,3.3-0.6,3.3-4.1
		V25.4c0-3.5-0.4-4-3.3-4v-0.7h9.1c4.8,0,7.5,2.6,7.5,5.9c0,3-2.3,5.4-6.2,5.8L165.7,36.3z M165.4,26.5c0-2.5-1.4-4.6-4.4-4.6h-3V31
		h3C164,31.1,165.4,29,165.4,26.5z"/>
	<path d="M190.7,36.6c0,3.5,0.4,4.1,3.3,4.1v0.7h-9.4v-0.7c2.9,0,3.3-0.6,3.3-4.1v-3.4l-5.8-8.9c-1.5-2.3-2.6-3-5-3v-0.7h9.9v0.7
		c-2.9,0-2.9,1-1.9,2.6l5,7.6l5.1-7.6c1.2-1.9,1-2.6-1.9-2.6v-0.7h8.1v0.7c-2.9,0-3.6,1-5,3l-5.7,8.7L190.7,36.6L190.7,36.6z"/>
</g>
</svg>
